<?xml version="1.0" encoding="utf-8"?>
<!-- Generator: Adobe Illustrator 22.0.0, SVG Export Plug-In . SVG Version: 6.00 Build 0)  -->
<svg version="1.1" id="Layer_1" xmlns="http://www.w3.org/2000/svg" xmlns:xlink="http://www.w3.org/1999/xlink" x="0px" y="0px"
	 viewBox="0 0 538 538" style="enable-background:new 0 0 538 538;" xml:space="preserve">
<g>
	<g>
		<path d="M444.9,117c0-2.1-0.8-4.1-2.3-5.7l-80-80c-1.5-1.5-3.5-2.3-5.7-2.3V29H117c-13.3,0-24,10.7-24,24v432
			c0,13.3,10.7,24,24,24h304c13.3,0,24-10.7,24-24L444.9,117L444.9,117z M365,56.3l52.7,52.7H373c-4.4,0-8-3.6-8-8V56.3z M429,485
			c0,4.4-3.6,8-8,8H117c-4.4,0-8-3.6-8-8V53c0-4.4,3.6-8,8-8h232v56c0,13.3,10.7,24,24,24h56V485z"/>
	</g>
</g>
<g>
	<g>
		<path d="M173,245c-13.3,0-24,10.7-24,24s10.7,24,24,24s24-10.7,24-24S186.3,245,173,245z M173,277c-4.4,0-8-3.6-8-8s3.6-8,8-8
			s8,3.6,8,8S177.4,277,173,277z"/>
	</g>
</g>
<g>
	<g>
		<rect x="229" y="261" width="160" height="16"/>
	</g>
</g>
<g>
	<g>
		<path d="M173,165c-13.3,0-24,10.7-24,24s10.7,24,24,24s24-10.7,24-24S186.3,165,173,165z M173,197c-4.4,0-8-3.6-8-8s3.6-8,8-8
			s8,3.6,8,8S177.4,197,173,197z"/>
	</g>
</g>
<g>
	<g>
		<rect x="229" y="181" width="160" height="16"/>
	</g>
</g>
<g>
	<g>
		<path d="M173,325c-13.3,0-24,10.7-24,24s10.7,24,24,24s24-10.7,24-24S186.3,325,173,325z M173,357c-4.4,0-8-3.6-8-8s3.6-8,8-8
			s8,3.6,8,8S177.4,357,173,357z"/>
	</g>
</g>
<g>
	<g>
		<rect x="229" y="341" width="160" height="16"/>
	</g>
</g>
<g>
	<g>
		<path d="M173,405c-13.3,0-24,10.7-24,24s10.7,24,24,24s24-10.7,24-24S186.3,405,173,405z M173,437c-4.4,0-8-3.6-8-8s3.6-8,8-8
			s8,3.6,8,8S177.4,437,173,437z"/>
	</g>
</g>
<g>
	<g>
		<rect x="229" y="421" width="160" height="16"/>
	</g>
</g>
</svg>
